<?xml version="1.0" encoding="UTF-8" standalone="no"?>
<svg
   xmlns:dc="http://purl.org/dc/elements/1.1/"
   xmlns:cc="http://creativecommons.org/ns#"
   xmlns:rdf="http://www.w3.org/1999/02/22-rdf-syntax-ns#"
   xmlns:svg="http://www.w3.org/2000/svg"
   xmlns="http://www.w3.org/2000/svg"
   xmlns:sodipodi="http://sodipodi.sourceforge.net/DTD/sodipodi-0.dtd"
   xmlns:inkscape="http://www.inkscape.org/namespaces/inkscape"
   width="24"
   height="24"
   viewBox="0 0 24 24"
   version="1.1"
   id="svg4"
   sodipodi:docname="icon_design_video.svg"
   inkscape:version="0.92.4 (5da689c313, 2019-01-14)">
  <metadata
     id="metadata10">
    <rdf:RDF>
      <cc:Work
         rdf:about="">
        <dc:format>image/svg+xml</dc:format>
        <dc:type
           rdf:resource="http://purl.org/dc/dcmitype/StillImage" />
      </cc:Work>
    </rdf:RDF>
  </metadata>
  <defs
     id="defs8" />
  <sodipodi:namedview
     pagecolor="#ffffff"
     bordercolor="#666666"
     borderopacity="1"
     objecttolerance="10"
     gridtolerance="10"
     guidetolerance="10"
     inkscape:pageopacity="0"
     inkscape:pageshadow="2"
     inkscape:window-width="640"
     inkscape:window-height="480"
     id="namedview6"
     showgrid="false"
     inkscape:zoom="9.8333333"
     inkscape:cx="12"
     inkscape:cy="12"
     inkscape:window-x="0"
     inkscape:window-y="0"
     inkscape:window-maximized="0"
     inkscape:current-layer="svg4" />
  <path
     d="M11.266 7l12.734-2.625-.008-.042-1.008-4.333-21.169 4.196c-1.054.209-1.815 1.134-1.815 2.207v14.597c0 1.657 1.343 3 3 3h18c1.657 0 3-1.343 3-3v-14h-12.734zm8.844-5.243l2.396 1.604-2.994.595-2.398-1.605 2.996-.594zm-5.898 1.169l2.4 1.606-2.994.595-2.401-1.607 2.995-.594zm-5.904 1.171l2.403 1.608-2.993.595-2.406-1.61 2.996-.593zm-2.555 5.903l2.039-2h3.054l-2.039 2h-3.054zm4.247 10v-7l6 3.414-6 3.586zm4.827-10h-3.054l2.039-2h3.054l-2.039 2zm6.012 0h-3.054l2.039-2h3.054l-2.039 2z"
     id="path2"
     style="fill:#ffffff" />
</svg>
